<svg class="main-svg" xmlns="http://www.w3.org/2000/svg" xmlns:xlink="http://www.w3.org/1999/xlink" width="800" height="600" style="" viewBox="0 0 800 600"><rect x="0" y="0" width="800" height="600" style="fill: rgb(255, 255, 255); fill-opacity: 1;"/><defs id="defs-520197"><g class="clips"/><g class="gradients"/><g class="patterns"/></defs><g class="bglayer"/><g class="layer-below"><g class="imagelayer"/><g class="shapelayer"/></g><g class="cartesianlayer"/><g class="polarlayer"/><g class="ternarylayer"/><g class="geolayer"/><g class="funnelarealayer"/><g class="pielayer"/><g class="iciclelayer"/><g class="treemaplayer"/><g class="sunburstlayer"/><g class="glimages"/><g class="sankey" transform="translate(80,100)matrix(1 0 0 1 0 0)" style="box-sizing: content-box; position: absolute; left: 0px; shape-rendering: geometricprecision; pointer-events: auto;"><g class="sankey-links" style="fill: none;"><path class="sankey-link" d="M20,159.8362040287453C113.33333333333333,159.8362040287453 113.33333333333333,194.9999999999999 206.66666666666666,194.9999999999999L206.66666666666666,299.9999999999999C113.33333333333333,299.9999999999999 113.33333333333333,264.83620402874527 20,264.83620402874527Z" style="stroke: rgb(68, 68, 68); stroke-opacity: 1; fill: rgb(219, 233, 246); fill-opacity: 0.5; stroke-width: 0; opacity: 1;"/><path class="sankey-link" d="M20,264.83620402874527C113.33333333333333,264.83620402874527 113.33333333333333,314.9999999999998 206.66666666666666,314.9999999999998L206.66666666666666,419.9999999999998C113.33333333333333,419.9999999999998 113.33333333333333,369.83620402874527 20,369.83620402874527Z" style="stroke: rgb(68, 68, 68); stroke-opacity: 1; fill: rgb(219, 233, 246); fill-opacity: 0.5; stroke-width: 0; opacity: 1;"/><path class="sankey-link" d="M226.66666666666666,194.9999999999999C320,194.9999999999999 320,2.2737367544323206e-13 413.3333333333333,2.2737367544323206e-13L413.3333333333333,7.000000000000226C320,7.000000000000226 320,201.9999999999999 226.66666666666666,201.9999999999999Z" style="stroke: rgb(68, 68, 68); stroke-opacity: 1; fill: rgb(127, 194, 64); fill-opacity: 0.5; stroke-width: 0; opacity: 1;"/><path class="sankey-link" d="M226.66666666666666,201.9999999999999C320,201.9999999999999 320,29.000000000000227 413.3333333333333,29.000000000000227L413.3333333333333,36.00000000000023C320,36.00000000000023 320,208.9999999999999 226.66666666666666,208.9999999999999Z" style="stroke: rgb(68, 68, 68); stroke-opacity: 1; fill: rgb(127, 194, 64); fill-opacity: 0.5; stroke-width: 0; opacity: 1;"/><path class="sankey-link" d="M226.66666666666666,208.9999999999999C320,208.9999999999999 320,58.00000000000023 413.3333333333333,58.00000000000023L413.3333333333333,65.00000000000023C320,65.00000000000023 320,215.9999999999999 226.66666666666666,215.9999999999999Z" style="stroke: rgb(68, 68, 68); stroke-opacity: 1; fill: rgb(127, 194, 64); fill-opacity: 0.5; stroke-width: 0; opacity: 1;"/><path class="sankey-link" d="M226.66666666666666,215.9999999999999C320,215.9999999999999 320,87.00000000000034 413.3333333333333,87.00000000000034L413.3333333333333,94.00000000000034C320,94.00000000000034 320,222.9999999999999 226.66666666666666,222.9999999999999Z" style="stroke: rgb(68, 68, 68); stroke-opacity: 1; fill: rgb(127, 194, 64); fill-opacity: 0.5; stroke-width: 0; opacity: 1;"/><path class="sankey-link" d="M226.66666666666666,222.9999999999999C320,222.9999999999999 320,116.00000000000045 413.3333333333333,116.00000000000045L413.3333333333333,123.00000000000045C320,123.00000000000045 320,229.9999999999999 226.66666666666666,229.9999999999999Z" style="stroke: rgb(68, 68, 68); stroke-opacity: 1; fill: rgb(127, 194, 64); fill-opacity: 0.5; stroke-width: 0; opacity: 1;"/><path class="sankey-link" d="M226.66666666666666,229.9999999999999C320,229.9999999999999 320,145.00000000000028 413.3333333333333,145.00000000000028L413.3333333333333,152.00000000000028C320,152.00000000000028 320,236.9999999999999 226.66666666666666,236.9999999999999Z" style="stroke: rgb(68, 68, 68); stroke-opacity: 1; fill: rgb(127, 194, 64); fill-opacity: 0.5; stroke-width: 0; opacity: 1;"/><path class="sankey-link" d="M226.66666666666666,236.9999999999999C320,236.9999999999999 320,174.00000000000023 413.3333333333333,174.00000000000023L413.3333333333333,181.00000000000023C320,181.00000000000023 320,243.9999999999999 226.66666666666666,243.9999999999999Z" style="stroke: rgb(68, 68, 68); stroke-opacity: 1; fill: rgb(127, 194, 64); fill-opacity: 0.5; stroke-width: 0; opacity: 1;"/><path class="sankey-link" d="M226.66666666666666,243.9999999999999C320,243.9999999999999 320,203.00000000000028 413.3333333333333,203.00000000000028L413.3333333333333,210.00000000000028C320,210.00000000000028 320,250.9999999999999 226.66666666666666,250.9999999999999Z" style="stroke: rgb(68, 68, 68); stroke-opacity: 1; fill: rgb(127, 194, 64); fill-opacity: 0.5; stroke-width: 0; opacity: 1;"/><path class="sankey-link" d="M226.66666666666666,250.9999999999999C320,250.9999999999999 320,232.0000000000001 413.3333333333333,232.0000000000001L413.3333333333333,239.0000000000001C320,239.0000000000001 320,257.9999999999999 226.66666666666666,257.9999999999999Z" style="stroke: rgb(68, 68, 68); stroke-opacity: 1; fill: rgb(127, 194, 64); fill-opacity: 0.5; stroke-width: 0; opacity: 1;"/><path class="sankey-link" d="M226.66666666666666,257.9999999999999C320,257.9999999999999 320,261 413.3333333333333,261L413.3333333333333,268C320,268 320,264.9999999999999 226.66666666666666,264.9999999999999Z" style="stroke: rgb(68, 68, 68); stroke-opacity: 1; fill: rgb(127, 194, 64); fill-opacity: 0.5; stroke-width: 0; opacity: 1;"/><path class="sankey-link" d="M226.66666666666666,264.9999999999999C320,264.9999999999999 320,290.00000000000006 413.3333333333333,290.00000000000006L413.3333333333333,297.00000000000006C320,297.00000000000006 320,271.9999999999999 226.66666666666666,271.9999999999999Z" style="stroke: rgb(68, 68, 68); stroke-opacity: 1; fill: rgb(127, 194, 64); fill-opacity: 0.5; stroke-width: 0; opacity: 1;"/><path class="sankey-link" d="M226.66666666666666,271.9999999999999C320,271.9999999999999 320,318.99999999999983 413.3333333333333,318.99999999999983L413.3333333333333,325.99999999999983C320,325.99999999999983 320,278.9999999999999 226.66666666666666,278.9999999999999Z" style="stroke: rgb(68, 68, 68); stroke-opacity: 1; fill: rgb(127, 194, 64); fill-opacity: 0.5; stroke-width: 0; opacity: 1;"/><path class="sankey-link" d="M226.66666666666666,278.9999999999999C320,278.9999999999999 320,348 413.3333333333333,348L413.3333333333333,355C320,355 320,285.9999999999999 226.66666666666666,285.9999999999999Z" style="stroke: rgb(68, 68, 68); stroke-opacity: 1; fill: rgb(127, 194, 64); fill-opacity: 0.5; stroke-width: 0; opacity: 1;"/><path class="sankey-link" d="M226.66666666666666,285.9999999999999C320,285.9999999999999 320,377 413.3333333333333,377L413.3333333333333,384C320,384 320,292.9999999999999 226.66666666666666,292.9999999999999Z" style="stroke: rgb(68, 68, 68); stroke-opacity: 1; fill: rgb(127, 194, 64); fill-opacity: 0.5; stroke-width: 0; opacity: 1;"/><path class="sankey-link" d="M226.66666666666666,314.9999999999998C320,314.9999999999998 320,7.000000000000225 413.3333333333333,7.000000000000225L413.3333333333333,14.000000000000224C320,14.000000000000224 320,321.9999999999998 226.66666666666666,321.9999999999998Z" style="stroke: rgb(68, 68, 68); stroke-opacity: 1; fill: rgb(242, 116, 32); fill-opacity: 0.5; stroke-width: 0; opacity: 1;"/><path class="sankey-link" d="M226.66666666666666,321.9999999999998C320,321.9999999999998 320,36.00000000000023 413.3333333333333,36.00000000000023L413.3333333333333,43.00000000000023C320,43.00000000000023 320,328.9999999999998 226.66666666666666,328.9999999999998Z" style="stroke: rgb(68, 68, 68); stroke-opacity: 1; fill: rgb(242, 116, 32); fill-opacity: 0.5; stroke-width: 0; opacity: 1;"/><path class="sankey-link" d="M226.66666666666666,328.9999999999998C320,328.9999999999998 320,65.00000000000023 413.3333333333333,65.00000000000023L413.3333333333333,72.00000000000023C320,72.00000000000023 320,335.9999999999998 226.66666666666666,335.9999999999998Z" style="stroke: rgb(68, 68, 68); stroke-opacity: 1; fill: rgb(242, 116, 32); fill-opacity: 0.5; stroke-width: 0; opacity: 1;"/><path class="sankey-link" d="M226.66666666666666,335.9999999999998C320,335.9999999999998 320,94.00000000000034 413.3333333333333,94.00000000000034L413.3333333333333,101.00000000000034C320,101.00000000000034 320,342.9999999999998 226.66666666666666,342.9999999999998Z" style="stroke: rgb(68, 68, 68); stroke-opacity: 1; fill: rgb(242, 116, 32); fill-opacity: 0.5; stroke-width: 0; opacity: 1;"/><path class="sankey-link" d="M226.66666666666666,342.9999999999998C320,342.9999999999998 320,123.00000000000045 413.3333333333333,123.00000000000045L413.3333333333333,130.00000000000045C320,130.00000000000045 320,349.9999999999998 226.66666666666666,349.9999999999998Z" style="stroke: rgb(68, 68, 68); stroke-opacity: 1; fill: rgb(242, 116, 32); fill-opacity: 0.5; stroke-width: 0; opacity: 1;"/><path class="sankey-link" d="M226.66666666666666,349.9999999999998C320,349.9999999999998 320,152.00000000000028 413.3333333333333,152.00000000000028L413.3333333333333,159.00000000000028C320,159.00000000000028 320,356.9999999999998 226.66666666666666,356.9999999999998Z" style="stroke: rgb(68, 68, 68); stroke-opacity: 1; fill: rgb(242, 116, 32); fill-opacity: 0.5; stroke-width: 0; opacity: 1;"/><path class="sankey-link" d="M226.66666666666666,356.9999999999998C320,356.9999999999998 320,181.00000000000023 413.3333333333333,181.00000000000023L413.3333333333333,188.00000000000023C320,188.00000000000023 320,363.9999999999998 226.66666666666666,363.9999999999998Z" style="stroke: rgb(68, 68, 68); stroke-opacity: 1; fill: rgb(242, 116, 32); fill-opacity: 0.5; stroke-width: 0; opacity: 1;"/><path class="sankey-link" d="M226.66666666666666,363.9999999999998C320,363.9999999999998 320,210.00000000000028 413.3333333333333,210.00000000000028L413.3333333333333,217.00000000000028C320,217.00000000000028 320,370.9999999999998 226.66666666666666,370.9999999999998Z" style="stroke: rgb(68, 68, 68); stroke-opacity: 1; fill: rgb(242, 116, 32); fill-opacity: 0.5; stroke-width: 0; opacity: 1;"/><path class="sankey-link" d="M226.66666666666666,370.9999999999998C320,370.9999999999998 320,239.0000000000001 413.3333333333333,239.0000000000001L413.3333333333333,246.0000000000001C320,246.0000000000001 320,377.9999999999998 226.66666666666666,377.9999999999998Z" style="stroke: rgb(68, 68, 68); stroke-opacity: 1; fill: rgb(242, 116, 32); fill-opacity: 0.5; stroke-width: 0; opacity: 1;"/><path class="sankey-link" d="M226.66666666666666,377.9999999999998C320,377.9999999999998 320,268 413.3333333333333,268L413.3333333333333,275C320,275 320,384.9999999999998 226.66666666666666,384.9999999999998Z" style="stroke: rgb(68, 68, 68); stroke-opacity: 1; fill: rgb(242, 116, 32); fill-opacity: 0.5; stroke-width: 0; opacity: 1;"/><path class="sankey-link" d="M226.66666666666666,384.9999999999998C320,384.9999999999998 320,297.00000000000006 413.3333333333333,297.00000000000006L413.3333333333333,304.00000000000006C320,304.00000000000006 320,391.9999999999998 226.66666666666666,391.9999999999998Z" style="stroke: rgb(68, 68, 68); stroke-opacity: 1; fill: rgb(242, 116, 32); fill-opacity: 0.5; stroke-width: 0; opacity: 1;"/><path class="sankey-link" d="M226.66666666666666,391.9999999999998C320,391.9999999999998 320,325.99999999999983 413.3333333333333,325.99999999999983L413.3333333333333,332.99999999999983C320,332.99999999999983 320,398.9999999999998 226.66666666666666,398.9999999999998Z" style="stroke: rgb(68, 68, 68); stroke-opacity: 1; fill: rgb(242, 116, 32); fill-opacity: 0.5; stroke-width: 0; opacity: 1;"/><path class="sankey-link" d="M226.66666666666666,398.9999999999998C320,398.9999999999998 320,355 413.3333333333333,355L413.3333333333333,362C320,362 320,405.9999999999998 226.66666666666666,405.9999999999998Z" style="stroke: rgb(68, 68, 68); stroke-opacity: 1; fill: rgb(242, 116, 32); fill-opacity: 0.5; stroke-width: 0; opacity: 1;"/><path class="sankey-link" d="M226.66666666666666,405.9999999999998C320,405.9999999999998 320,384 413.3333333333333,384L413.3333333333333,391C320,391 320,412.9999999999998 226.66666666666666,412.9999999999998Z" style="stroke: rgb(68, 68, 68); stroke-opacity: 1; fill: rgb(242, 116, 32); fill-opacity: 0.5; stroke-width: 0; opacity: 1;"/><path class="sankey-link" d="M433.3333333333333,2.2737367544323206e-13C526.6666666666666,2.2737367544323206e-13 526.6666666666666,148.39655997189104 620,148.39655997189104L620,162.39655997189104C526.6666666666666,162.39655997189104 526.6666666666666,14.000000000000224 433.3333333333333,14.000000000000224Z" style="stroke: rgb(68, 68, 68); stroke-opacity: 1; fill: rgb(75, 80, 77); fill-opacity: 0.5; stroke-width: 0; opacity: 1;"/><path class="sankey-link" d="M433.3333333333333,29.000000000000227C526.6666666666666,29.000000000000227 526.6666666666666,162.39655997189104 620,162.39655997189104L620,176.39655997189104C526.6666666666666,176.39655997189104 526.6666666666666,43.00000000000023 433.3333333333333,43.00000000000023Z" style="stroke: rgb(68, 68, 68); stroke-opacity: 1; fill: rgb(16, 96, 60); fill-opacity: 0.5; stroke-width: 0; opacity: 1;"/><path class="sankey-link" d="M433.3333333333333,58.00000000000023C526.6666666666666,58.00000000000023 526.6666666666666,176.39655997189104 620,176.39655997189104L620,190.39655997189104C526.6666666666666,190.39655997189104 526.6666666666666,72.00000000000023 433.3333333333333,72.00000000000023Z" style="stroke: rgb(68, 68, 68); stroke-opacity: 1; fill: rgb(29, 111, 192); fill-opacity: 0.5; stroke-width: 0; opacity: 1;"/><path class="sankey-link" d="M433.3333333333333,87.00000000000034C526.6666666666666,87.00000000000034 526.6666666666666,190.39655997189104 620,190.39655997189104L620,204.39655997189104C526.6666666666666,204.39655997189104 526.6666666666666,101.00000000000034 433.3333333333333,101.00000000000034Z" style="stroke: rgb(68, 68, 68); stroke-opacity: 1; fill: rgb(43, 163, 225); fill-opacity: 0.5; stroke-width: 0; opacity: 1;"/><path class="sankey-link" d="M433.3333333333333,116.00000000000045C526.6666666666666,116.00000000000045 526.6666666666666,204.39655997189104 620,204.39655997189104L620,218.39655997189104C526.6666666666666,218.39655997189104 526.6666666666666,130.00000000000045 433.3333333333333,130.00000000000045Z" style="stroke: rgb(68, 68, 68); stroke-opacity: 1; fill: rgb(220, 0, 31); fill-opacity: 0.5; stroke-width: 0; opacity: 1;"/><path class="sankey-link" d="M433.3333333333333,145.00000000000028C526.6666666666666,145.00000000000028 526.6666666666666,218.39655997189104 620,218.39655997189104L620,232.39655997189104C526.6666666666666,232.39655997189104 526.6666666666666,159.00000000000028 433.3333333333333,159.00000000000028Z" style="stroke: rgb(68, 68, 68); stroke-opacity: 1; fill: rgb(33, 72, 125); fill-opacity: 0.5; stroke-width: 0; opacity: 1;"/><path class="sankey-link" d="M433.3333333333333,174.00000000000023C526.6666666666666,174.00000000000023 526.6666666666666,232.39655997189104 620,232.39655997189104L620,246.39655997189104C526.6666666666666,246.39655997189104 526.6666666666666,188.00000000000023 433.3333333333333,188.00000000000023Z" style="stroke: rgb(68, 68, 68); stroke-opacity: 1; fill: rgb(158, 223, 250); fill-opacity: 0.5; stroke-width: 0; opacity: 1;"/><path class="sankey-link" d="M433.3333333333333,203.00000000000028C526.6666666666666,203.00000000000028 526.6666666666666,246.39655997189104 620,246.39655997189104L620,260.396559971891C526.6666666666666,260.396559971891 526.6666666666666,217.00000000000028 433.3333333333333,217.00000000000028Z" style="stroke: rgb(68, 68, 68); stroke-opacity: 1; fill: rgb(138, 218, 193); fill-opacity: 0.5; stroke-width: 0; opacity: 1;"/><path class="sankey-link" d="M433.3333333333333,232.0000000000001C526.6666666666666,232.0000000000001 526.6666666666666,260.396559971891 620,260.396559971891L620,274.396559971891C526.6666666666666,274.396559971891 526.6666666666666,246.0000000000001 433.3333333333333,246.0000000000001Z" style="stroke: rgb(68, 68, 68); stroke-opacity: 1; fill: rgb(3, 78, 12); fill-opacity: 0.5; stroke-width: 0; opacity: 1;"/><path class="sankey-link" d="M433.3333333333333,261C526.6666666666666,261 526.6666666666666,274.396559971891 620,274.396559971891L620,288.396559971891C526.6666666666666,288.396559971891 526.6666666666666,275 433.3333333333333,275Z" style="stroke: rgb(68, 68, 68); stroke-opacity: 1; fill: rgb(32, 51, 68); fill-opacity: 0.5; stroke-width: 0; opacity: 1;"/><path class="sankey-link" d="M433.3333333333333,290.00000000000006C526.6666666666666,290.00000000000006 526.6666666666666,288.396559971891 620,288.396559971891L620,302.396559971891C526.6666666666666,302.396559971891 526.6666666666666,304.00000000000006 433.3333333333333,304.00000000000006Z" style="stroke: rgb(68, 68, 68); stroke-opacity: 1; fill: rgb(0, 120, 214); fill-opacity: 0.5; stroke-width: 0; opacity: 1;"/><path class="sankey-link" d="M433.3333333333333,318.99999999999983C526.6666666666666,318.99999999999983 526.6666666666666,302.396559971891 620,302.396559971891L620,316.396559971891C526.6666666666666,316.396559971891 526.6666666666666,332.99999999999983 433.3333333333333,332.99999999999983Z" style="stroke: rgb(68, 68, 68); stroke-opacity: 1; fill: rgb(111, 254, 22); fill-opacity: 0.5; stroke-width: 0; opacity: 1;"/><path class="sankey-link" d="M433.3333333333333,348C526.6666666666666,348 526.6666666666666,316.396559971891 620,316.396559971891L620,330.396559971891C526.6666666666666,330.396559971891 526.6666666666666,362 433.3333333333333,362Z" style="stroke: rgb(68, 68, 68); stroke-opacity: 1; fill: rgb(101, 206, 111); fill-opacity: 0.5; stroke-width: 0; opacity: 1;"/><path class="sankey-link" d="M433.3333333333333,377C526.6666666666666,377 526.6666666666666,330.396559971891 620,330.396559971891L620,344.396559971891C526.6666666666666,344.396559971891 526.6666666666666,391 433.3333333333333,391Z" style="stroke: rgb(68, 68, 68); stroke-opacity: 1; fill: rgb(28, 0, 191); fill-opacity: 0.5; stroke-width: 0; opacity: 1;"/><path class="sankey-link" d="M226.66666666666666,292.9999999999999C320,292.9999999999999 320,406 413.3333333333333,406L413.3333333333333,413C320,413 320,299.9999999999999 226.66666666666666,299.9999999999999Z" style="stroke: rgb(68, 68, 68); stroke-opacity: 1; fill: rgb(127, 194, 64); fill-opacity: 0.5; stroke-width: 0; opacity: 1;"/><path class="sankey-link" d="M226.66666666666666,412.9999999999998C320,412.9999999999998 320,413 413.3333333333333,413L413.3333333333333,420C320,420 320,419.9999999999998 226.66666666666666,419.9999999999998Z" style="stroke: rgb(68, 68, 68); stroke-opacity: 1; fill: rgb(242, 116, 32); fill-opacity: 0.5; stroke-width: 0; opacity: 1;"/><path class="sankey-link" d="M433.3333333333333,406C526.6666666666666,406 526.6666666666666,359.39655997189095 620,359.39655997189095L620,373.39655997189095C526.6666666666666,373.39655997189095 526.6666666666666,420 433.3333333333333,420Z" style="stroke: rgb(68, 68, 68); stroke-opacity: 1; fill: rgb(0, 255, 255); fill-opacity: 0.5; stroke-width: 0; opacity: 1;"/></g><g class="sankey-node-set" style="cursor: move;"><g class="sankey-node" transform="translate(0.000,159.836)" style="opacity: 1;"><rect class="node-rect" width="20" height="209.99999999999986" style="stroke-width: 0.5; stroke: rgb(0, 0, 0); stroke-opacity: 1; fill: rgb(73, 148, 206); fill-opacity: 1;"/><text class="node-label" data-notex="1" x="0" y="0" text-anchor="start" transform="translate(23.25,109.19999999999993)" style="cursor: default; font-family: 'Open Sans', verdana, arial, sans-serif; font-size: 12px; fill: rgb(42, 63, 95); fill-opacity: 1; white-space: pre; text-shadow: white 1px 1px 1px, white -1px -1px 1px, white 1px -1px 1px, white -1px 1px 1px;">CV</text></g><g class="sankey-node" transform="translate(206.667,195.000)" style="opacity: 1;"><rect class="node-rect" width="20" height="104.99999999999989" style="stroke-width: 0.5; stroke: rgb(0, 0, 0); stroke-opacity: 1; fill: rgb(127, 194, 65); fill-opacity: 1;"/><text class="node-label" data-notex="1" x="0" y="0" text-anchor="start" transform="translate(23.25,56.699999999999946)" style="cursor: default; font-family: 'Open Sans', verdana, arial, sans-serif; font-size: 12px; fill: rgb(42, 63, 95); fill-opacity: 1; white-space: pre; text-shadow: white 1px 1px 1px, white -1px -1px 1px, white 1px -1px 1px, white -1px 1px 1px;">Defaced</text></g><g class="sankey-node" transform="translate(206.667,315.000)" style="opacity: 1;"><rect class="node-rect" width="20" height="105.00000000000023" style="stroke-width: 0.5; stroke: rgb(0, 0, 0); stroke-opacity: 1; fill: rgb(242, 116, 32); fill-opacity: 1;"/><text class="node-label" data-notex="1" x="0" y="0" text-anchor="start" transform="translate(23.25,56.70000000000012)" style="cursor: default; font-family: 'Open Sans', verdana, arial, sans-serif; font-size: 12px; fill: rgb(42, 63, 95); fill-opacity: 1; white-space: pre; text-shadow: white 1px 1px 1px, white -1px -1px 1px, white 1px -1px 1px, white -1px 1px 1px;">Non-defaced</text></g><g class="sankey-node" transform="translate(413.333,0.000)" style="opacity: 1;"><rect class="node-rect" width="20" height="14" style="stroke-width: 0.5; stroke: rgb(0, 0, 0); stroke-opacity: 1; fill: rgb(75, 80, 77); fill-opacity: 1;"/><text class="node-label" data-notex="1" x="0" y="0" text-anchor="start" transform="translate(23.25,11.2)" style="cursor: default; font-family: 'Open Sans', verdana, arial, sans-serif; font-size: 12px; fill: rgb(42, 63, 95); fill-opacity: 1; white-space: pre; text-shadow: white 1px 1px 1px, white -1px -1px 1px, white 1px -1px 1px, white -1px 1px 1px;">F1</text></g><g class="sankey-node" transform="translate(413.333,29.000)" style="opacity: 1;"><rect class="node-rect" width="20" height="14" style="stroke-width: 0.5; stroke: rgb(0, 0, 0); stroke-opacity: 1; fill: rgb(16, 96, 60); fill-opacity: 1;"/><text class="node-label" data-notex="1" x="0" y="0" text-anchor="start" transform="translate(23.25,11.2)" style="cursor: default; font-family: 'Open Sans', verdana, arial, sans-serif; font-size: 12px; fill: rgb(42, 63, 95); fill-opacity: 1; white-space: pre; text-shadow: white 1px 1px 1px, white -1px -1px 1px, white 1px -1px 1px, white -1px 1px 1px;">F2</text></g><g class="sankey-node" transform="translate(413.333,58.000)" style="opacity: 1;"><rect class="node-rect" width="20" height="14.000000000000114" style="stroke-width: 0.5; stroke: rgb(0, 0, 0); stroke-opacity: 1; fill: rgb(29, 111, 192); fill-opacity: 1;"/><text class="node-label" data-notex="1" x="0" y="0" text-anchor="start" transform="translate(23.25,11.200000000000056)" style="cursor: default; font-family: 'Open Sans', verdana, arial, sans-serif; font-size: 12px; fill: rgb(42, 63, 95); fill-opacity: 1; white-space: pre; text-shadow: white 1px 1px 1px, white -1px -1px 1px, white 1px -1px 1px, white -1px 1px 1px;">F3</text></g><g class="sankey-node" transform="translate(413.333,87.000)" style="opacity: 1;"><rect class="node-rect" width="20" height="14.000000000000114" style="stroke-width: 0.5; stroke: rgb(0, 0, 0); stroke-opacity: 1; fill: rgb(43, 163, 225); fill-opacity: 1;"/><text class="node-label" data-notex="1" x="0" y="0" text-anchor="start" transform="translate(23.25,11.200000000000056)" style="cursor: default; font-family: 'Open Sans', verdana, arial, sans-serif; font-size: 12px; fill: rgb(42, 63, 95); fill-opacity: 1; white-space: pre; text-shadow: white 1px 1px 1px, white -1px -1px 1px, white 1px -1px 1px, white -1px 1px 1px;">F4</text></g><g class="sankey-node" transform="translate(413.333,116.000)" style="opacity: 1;"><rect class="node-rect" width="20" height="13.99999999999983" style="stroke-width: 0.5; stroke: rgb(0, 0, 0); stroke-opacity: 1; fill: rgb(220, 0, 31); fill-opacity: 1;"/><text class="node-label" data-notex="1" x="0" y="0" text-anchor="start" transform="translate(23.25,11.199999999999914)" style="cursor: default; font-family: 'Open Sans', verdana, arial, sans-serif; font-size: 12px; fill: rgb(42, 63, 95); fill-opacity: 1; white-space: pre; text-shadow: white 1px 1px 1px, white -1px -1px 1px, white 1px -1px 1px, white -1px 1px 1px;">F5</text></g><g class="sankey-node" transform="translate(413.333,145.000)" style="opacity: 1;"><rect class="node-rect" width="20" height="13.999999999999943" style="stroke-width: 0.5; stroke: rgb(0, 0, 0); stroke-opacity: 1; fill: rgb(33, 72, 125); fill-opacity: 1;"/><text class="node-label" data-notex="1" x="0" y="0" text-anchor="start" transform="translate(23.25,11.19999999999997)" style="cursor: default; font-family: 'Open Sans', verdana, arial, sans-serif; font-size: 12px; fill: rgb(42, 63, 95); fill-opacity: 1; white-space: pre; text-shadow: white 1px 1px 1px, white -1px -1px 1px, white 1px -1px 1px, white -1px 1px 1px;">F6</text></g><g class="sankey-node" transform="translate(413.333,174.000)" style="opacity: 1;"><rect class="node-rect" width="20" height="14.000000000000057" style="stroke-width: 0.5; stroke: rgb(0, 0, 0); stroke-opacity: 1; fill: rgb(158, 223, 250); fill-opacity: 1;"/><text class="node-label" data-notex="1" x="0" y="0" text-anchor="start" transform="translate(23.25,11.200000000000028)" style="cursor: default; font-family: 'Open Sans', verdana, arial, sans-serif; font-size: 12px; fill: rgb(42, 63, 95); fill-opacity: 1; white-space: pre; text-shadow: white 1px 1px 1px, white -1px -1px 1px, white 1px -1px 1px, white -1px 1px 1px;">F7</text></g><g class="sankey-node" transform="translate(413.333,203.000)" style="opacity: 1;"><rect class="node-rect" width="20" height="13.99999999999983" style="stroke-width: 0.5; stroke: rgb(0, 0, 0); stroke-opacity: 1; fill: rgb(138, 218, 193); fill-opacity: 1;"/><text class="node-label" data-notex="1" x="0" y="0" text-anchor="start" transform="translate(23.25,11.199999999999914)" style="cursor: default; font-family: 'Open Sans', verdana, arial, sans-serif; font-size: 12px; fill: rgb(42, 63, 95); fill-opacity: 1; white-space: pre; text-shadow: white 1px 1px 1px, white -1px -1px 1px, white 1px -1px 1px, white -1px 1px 1px;">F8</text></g><g class="sankey-node" transform="translate(413.333,232.000)" style="opacity: 1;"><rect class="node-rect" width="20" height="13.999999999999886" style="stroke-width: 0.5; stroke: rgb(0, 0, 0); stroke-opacity: 1; fill: rgb(3, 78, 12); fill-opacity: 1;"/><text class="node-label" data-notex="1" x="0" y="0" text-anchor="start" transform="translate(23.25,11.199999999999942)" style="cursor: default; font-family: 'Open Sans', verdana, arial, sans-serif; font-size: 12px; fill: rgb(42, 63, 95); fill-opacity: 1; white-space: pre; text-shadow: white 1px 1px 1px, white -1px -1px 1px, white 1px -1px 1px, white -1px 1px 1px;">F9</text></g><g class="sankey-node" transform="translate(413.333,261.000)" style="opacity: 1;"><rect class="node-rect" width="20" height="14.000000000000057" style="stroke-width: 0.5; stroke: rgb(0, 0, 0); stroke-opacity: 1; fill: rgb(32, 51, 68); fill-opacity: 1;"/><text class="node-label" data-notex="1" x="0" y="0" text-anchor="start" transform="translate(23.25,11.200000000000028)" style="cursor: default; font-family: 'Open Sans', verdana, arial, sans-serif; font-size: 12px; fill: rgb(42, 63, 95); fill-opacity: 1; white-space: pre; text-shadow: white 1px 1px 1px, white -1px -1px 1px, white 1px -1px 1px, white -1px 1px 1px;">F10</text></g><g class="sankey-node" transform="translate(413.333,290.000)" style="opacity: 1;"><rect class="node-rect" width="20" height="13.999999999999773" style="stroke-width: 0.5; stroke: rgb(0, 0, 0); stroke-opacity: 1; fill: rgb(0, 120, 214); fill-opacity: 1;"/><text class="node-label" data-notex="1" x="0" y="0" text-anchor="start" transform="translate(23.25,11.199999999999886)" style="cursor: default; font-family: 'Open Sans', verdana, arial, sans-serif; font-size: 12px; fill: rgb(42, 63, 95); fill-opacity: 1; white-space: pre; text-shadow: white 1px 1px 1px, white -1px -1px 1px, white 1px -1px 1px, white -1px 1px 1px;">F11</text></g><g class="sankey-node" transform="translate(413.333,319.000)" style="opacity: 1;"><rect class="node-rect" width="20" height="14.000000000000227" style="stroke-width: 0.5; stroke: rgb(0, 0, 0); stroke-opacity: 1; fill: rgb(111, 254, 22); fill-opacity: 1;"/><text class="node-label" data-notex="1" x="0" y="0" text-anchor="start" transform="translate(23.25,11.200000000000113)" style="cursor: default; font-family: 'Open Sans', verdana, arial, sans-serif; font-size: 12px; fill: rgb(42, 63, 95); fill-opacity: 1; white-space: pre; text-shadow: white 1px 1px 1px, white -1px -1px 1px, white 1px -1px 1px, white -1px 1px 1px;">F12</text></g><g class="sankey-node" transform="translate(413.333,348.000)" style="opacity: 1;"><rect class="node-rect" width="20" height="14" style="stroke-width: 0.5; stroke: rgb(0, 0, 0); stroke-opacity: 1; fill: rgb(101, 206, 111); fill-opacity: 1;"/><text class="node-label" data-notex="1" x="0" y="0" text-anchor="start" transform="translate(23.25,11.2)" style="cursor: default; font-family: 'Open Sans', verdana, arial, sans-serif; font-size: 12px; fill: rgb(42, 63, 95); fill-opacity: 1; white-space: pre; text-shadow: white 1px 1px 1px, white -1px -1px 1px, white 1px -1px 1px, white -1px 1px 1px;">F13</text></g><g class="sankey-node" transform="translate(413.333,377.000)" style="opacity: 1;"><rect class="node-rect" width="20" height="14" style="stroke-width: 0.5; stroke: rgb(0, 0, 0); stroke-opacity: 1; fill: rgb(28, 0, 191); fill-opacity: 1;"/><text class="node-label" data-notex="1" x="0" y="0" text-anchor="start" transform="translate(23.25,11.2)" style="cursor: default; font-family: 'Open Sans', verdana, arial, sans-serif; font-size: 12px; fill: rgb(42, 63, 95); fill-opacity: 1; white-space: pre; text-shadow: white 1px 1px 1px, white -1px -1px 1px, white 1px -1px 1px, white -1px 1px 1px;">F14</text></g><g class="sankey-node" transform="translate(620.000,148.397)" style="opacity: 1;"><rect class="node-rect" width="20" height="195.99999999999991" style="stroke-width: 0.5; stroke: rgb(0, 0, 0); stroke-opacity: 1; fill: rgb(0, 128, 128); fill-opacity: 1;"/><text class="node-label" data-notex="1" x="0" y="0" text-anchor="end" transform="translate(-3.25,102.19999999999996)" style="cursor: default; font-family: 'Open Sans', verdana, arial, sans-serif; font-size: 12px; fill: rgb(42, 63, 95); fill-opacity: 1; white-space: pre; text-shadow: white 1px 1px 1px, white -1px -1px 1px, white 1px -1px 1px, white -1px 1px 1px;">Training</text></g><g class="sankey-node" transform="translate(413.333,406.000)" style="opacity: 1;"><rect class="node-rect" width="20" height="14" style="stroke-width: 0.5; stroke: rgb(0, 0, 0); stroke-opacity: 1; fill: rgb(0, 255, 255); fill-opacity: 1;"/><text class="node-label" data-notex="1" x="0" y="0" text-anchor="start" transform="translate(23.25,11.2)" style="cursor: default; font-family: 'Open Sans', verdana, arial, sans-serif; font-size: 12px; fill: rgb(42, 63, 95); fill-opacity: 1; white-space: pre; text-shadow: white 1px 1px 1px, white -1px -1px 1px, white 1px -1px 1px, white -1px 1px 1px;">F15</text></g><g class="sankey-node" transform="translate(620.000,359.397)" style="opacity: 1;"><rect class="node-rect" width="20" height="14" style="stroke-width: 0.5; stroke: rgb(0, 0, 0); stroke-opacity: 1; fill: rgb(0, 0, 128); fill-opacity: 1;"/><text class="node-label" data-notex="1" x="0" y="0" text-anchor="end" transform="translate(-3.25,11.2)" style="cursor: default; font-family: 'Open Sans', verdana, arial, sans-serif; font-size: 12px; fill: rgb(42, 63, 95); fill-opacity: 1; white-space: pre; text-shadow: white 1px 1px 1px, white -1px -1px 1px, white 1px -1px 1px, white -1px 1px 1px;">Validation</text></g></g></g><defs id="topdefs-520197"><g class="clips"/></defs><g class="layer-above"><g class="imagelayer"/><g class="shapelayer"/></g><g class="infolayer"><g class="g-gtitle"><text class="gtitle" x="40" y="50" text-anchor="start" dy="0em" style="font-family: 'Open Sans', verdana, arial, sans-serif; font-size: 17px; fill: rgb(42, 63, 95); opacity: 1; font-weight: normal; white-space: pre;">Nondefaced-detector cross-validation flow diagram</text></g><g class="first-render"/></g></svg>
