<svg class="main-svg" xmlns="http://www.w3.org/2000/svg" xmlns:xlink="http://www.w3.org/1999/xlink" width="800" height="600" style="" viewBox="0 0 800 600"><rect x="0" y="0" width="800" height="600" style="fill: rgb(255, 255, 255); fill-opacity: 1;"/><defs id="defs-1efab6"><g class="clips"/><g class="gradients"/><g class="patterns"/></defs><g class="bglayer"/><g class="layer-below"><g class="imagelayer"/><g class="shapelayer"/></g><g class="cartesianlayer"/><g class="polarlayer"/><g class="ternarylayer"/><g class="geolayer"/><g class="funnelarealayer"/><g class="pielayer"/><g class="iciclelayer"/><g class="treemaplayer"/><g class="sunburstlayer"/><g class="glimages"/><g class="sankey" transform="translate(80,100)matrix(0 1 1 0 0 0)" style="box-sizing: content-box; position: absolute; left: 0px; shape-rendering: geometricprecision; pointer-events: auto;"><g class="sankey-links" style="fill: none;"><path class="sankey-link" d="M20,161.31416744640933C76.66666666666667,161.31416744640933 76.66666666666667,194.99999999999991 133.33333333333334,194.99999999999991L133.33333333333334,349.9999999999999C76.66666666666667,349.9999999999999 76.66666666666667,316.3141674464093 20,316.3141674464093Z" style="stroke: rgb(68, 68, 68); stroke-opacity: 1; fill: rgb(219, 233, 246); fill-opacity: 0.5; stroke-width: 0; opacity: 1;"/><path class="sankey-link" d="M20,316.3141674464092C76.66666666666667,316.3141674464092 76.66666666666667,364.9999999999999 133.33333333333334,364.9999999999999L133.33333333333334,519.9999999999999C76.66666666666667,519.9999999999999 76.66666666666667,471.3141674464092 20,471.3141674464092Z" style="stroke: rgb(68, 68, 68); stroke-opacity: 1; fill: rgb(219, 233, 246); fill-opacity: 0.5; stroke-width: 0; opacity: 1;"/><path class="sankey-link" d="M153.33333333333334,194.99999999999991C210,194.99999999999991 210,-8.242295734817162e-13 266.6666666666667,-8.242295734817162e-13L266.6666666666667,10.333333333332506C210,10.333333333332506 210,205.33333333333323 153.33333333333334,205.33333333333323Z" style="stroke: rgb(68, 68, 68); stroke-opacity: 1; fill: rgb(127, 194, 64); fill-opacity: 0.5; stroke-width: 0; opacity: 1;"/><path class="sankey-link" d="M153.33333333333334,205.33333333333326C210,205.33333333333326 210,35.666666666665805 266.6666666666667,35.666666666665805L266.6666666666667,45.99999999999913C210,45.99999999999913 210,215.66666666666657 153.33333333333334,215.66666666666657Z" style="stroke: rgb(68, 68, 68); stroke-opacity: 1; fill: rgb(127, 194, 64); fill-opacity: 0.5; stroke-width: 0; opacity: 1;"/><path class="sankey-link" d="M153.33333333333334,215.6666666666666C210,215.6666666666666 210,71.33333333333246 266.6666666666667,71.33333333333246L266.6666666666667,81.6666666666658C210,81.6666666666658 210,225.99999999999991 153.33333333333334,225.99999999999991Z" style="stroke: rgb(68, 68, 68); stroke-opacity: 1; fill: rgb(127, 194, 64); fill-opacity: 0.5; stroke-width: 0; opacity: 1;"/><path class="sankey-link" d="M153.33333333333334,225.99999999999994C210,225.99999999999994 210,106.9999999999992 266.6666666666667,106.9999999999992L266.6666666666667,117.33333333333255C210,117.33333333333255 210,236.33333333333326 153.33333333333334,236.33333333333326Z" style="stroke: rgb(68, 68, 68); stroke-opacity: 1; fill: rgb(127, 194, 64); fill-opacity: 0.5; stroke-width: 0; opacity: 1;"/><path class="sankey-link" d="M153.33333333333334,236.3333333333333C210,236.3333333333333 210,142.66666666666595 266.6666666666667,142.66666666666595L266.6666666666667,152.99999999999926C210,152.99999999999926 210,246.6666666666666 153.33333333333334,246.6666666666666Z" style="stroke: rgb(68, 68, 68); stroke-opacity: 1; fill: rgb(127, 194, 64); fill-opacity: 0.5; stroke-width: 0; opacity: 1;"/><path class="sankey-link" d="M153.33333333333334,246.66666666666663C210,246.66666666666663 210,178.33333333333258 266.6666666666667,178.33333333333258L266.6666666666667,188.6666666666659C210,188.6666666666659 210,256.99999999999994 153.33333333333334,256.99999999999994Z" style="stroke: rgb(68, 68, 68); stroke-opacity: 1; fill: rgb(127, 194, 64); fill-opacity: 0.5; stroke-width: 0; opacity: 1;"/><path class="sankey-link" d="M153.33333333333334,256.99999999999994C210,256.99999999999994 210,213.99999999999932 266.6666666666667,213.99999999999932L266.6666666666667,224.33333333333263C210,224.33333333333263 210,267.3333333333333 153.33333333333334,267.3333333333333Z" style="stroke: rgb(68, 68, 68); stroke-opacity: 1; fill: rgb(127, 194, 64); fill-opacity: 0.5; stroke-width: 0; opacity: 1;"/><path class="sankey-link" d="M153.33333333333334,267.33333333333326C210,267.33333333333326 210,249.66666666666595 266.6666666666667,249.66666666666595L266.6666666666667,259.99999999999926C210,259.99999999999926 210,277.66666666666663 153.33333333333334,277.66666666666663Z" style="stroke: rgb(68, 68, 68); stroke-opacity: 1; fill: rgb(127, 194, 64); fill-opacity: 0.5; stroke-width: 0; opacity: 1;"/><path class="sankey-link" d="M153.33333333333334,277.6666666666666C210,277.6666666666666 210,285.33333333333303 266.6666666666667,285.33333333333303L266.6666666666667,295.6666666666664C210,295.6666666666664 210,287.99999999999994 153.33333333333334,287.99999999999994Z" style="stroke: rgb(68, 68, 68); stroke-opacity: 1; fill: rgb(127, 194, 64); fill-opacity: 0.5; stroke-width: 0; opacity: 1;"/><path class="sankey-link" d="M153.33333333333334,287.9999999999999C210,287.9999999999999 210,320.9999999999999 266.6666666666667,320.9999999999999L266.6666666666667,331.33333333333326C210,331.33333333333326 210,298.33333333333326 153.33333333333334,298.33333333333326Z" style="stroke: rgb(68, 68, 68); stroke-opacity: 1; fill: rgb(127, 194, 64); fill-opacity: 0.5; stroke-width: 0; opacity: 1;"/><path class="sankey-link" d="M153.33333333333334,298.3333333333332C210,298.3333333333332 210,356.66666666666663 266.6666666666667,356.66666666666663L266.6666666666667,367C210,367 210,308.6666666666666 153.33333333333334,308.6666666666666Z" style="stroke: rgb(68, 68, 68); stroke-opacity: 1; fill: rgb(127, 194, 64); fill-opacity: 0.5; stroke-width: 0; opacity: 1;"/><path class="sankey-link" d="M153.33333333333334,308.6666666666665C210,308.6666666666665 210,392.33333333333337 266.6666666666667,392.33333333333337L266.6666666666667,402.66666666666674C210,402.66666666666674 210,318.9999999999999 153.33333333333334,318.9999999999999Z" style="stroke: rgb(68, 68, 68); stroke-opacity: 1; fill: rgb(127, 194, 64); fill-opacity: 0.5; stroke-width: 0; opacity: 1;"/><path class="sankey-link" d="M153.33333333333334,318.99999999999983C210,318.99999999999983 210,428.0000000000001 266.6666666666667,428.0000000000001L266.6666666666667,438.3333333333335C210,438.3333333333335 210,329.3333333333332 153.33333333333334,329.3333333333332Z" style="stroke: rgb(68, 68, 68); stroke-opacity: 1; fill: rgb(127, 194, 64); fill-opacity: 0.5; stroke-width: 0; opacity: 1;"/><path class="sankey-link" d="M153.33333333333334,329.33333333333314C210,329.33333333333314 210,463.66666666666674 266.6666666666667,463.66666666666674L266.6666666666667,474.0000000000001C210,474.0000000000001 210,339.6666666666665 153.33333333333334,339.6666666666665Z" style="stroke: rgb(68, 68, 68); stroke-opacity: 1; fill: rgb(127, 194, 64); fill-opacity: 0.5; stroke-width: 0; opacity: 1;"/><path class="sankey-link" d="M153.33333333333334,364.99999999999994C210,364.99999999999994 210,10.333333333332508 266.6666666666667,10.333333333332508L266.6666666666667,20.666666666665837C210,20.666666666665837 210,375.3333333333333 153.33333333333334,375.3333333333333Z" style="stroke: rgb(68, 68, 68); stroke-opacity: 1; fill: rgb(242, 116, 32); fill-opacity: 0.5; stroke-width: 0; opacity: 1;"/><path class="sankey-link" d="M153.33333333333334,375.33333333333326C210,375.33333333333326 210,45.99999999999913 266.6666666666667,45.99999999999913L266.6666666666667,56.33333333333246C210,56.33333333333246 210,385.66666666666663 153.33333333333334,385.66666666666663Z" style="stroke: rgb(68, 68, 68); stroke-opacity: 1; fill: rgb(242, 116, 32); fill-opacity: 0.5; stroke-width: 0; opacity: 1;"/><path class="sankey-link" d="M153.33333333333334,385.6666666666666C210,385.6666666666666 210,81.66666666666579 266.6666666666667,81.66666666666579L266.6666666666667,91.99999999999913C210,91.99999999999913 210,395.99999999999994 153.33333333333334,395.99999999999994Z" style="stroke: rgb(68, 68, 68); stroke-opacity: 1; fill: rgb(242, 116, 32); fill-opacity: 0.5; stroke-width: 0; opacity: 1;"/><path class="sankey-link" d="M153.33333333333334,395.9999999999999C210,395.9999999999999 210,117.33333333333253 266.6666666666667,117.33333333333253L266.6666666666667,127.66666666666588C210,127.66666666666588 210,406.33333333333326 153.33333333333334,406.33333333333326Z" style="stroke: rgb(68, 68, 68); stroke-opacity: 1; fill: rgb(242, 116, 32); fill-opacity: 0.5; stroke-width: 0; opacity: 1;"/><path class="sankey-link" d="M153.33333333333334,406.3333333333332C210,406.3333333333332 210,152.9999999999993 266.6666666666667,152.9999999999993L266.6666666666667,163.3333333333326C210,163.3333333333326 210,416.6666666666666 153.33333333333334,416.6666666666666Z" style="stroke: rgb(68, 68, 68); stroke-opacity: 1; fill: rgb(242, 116, 32); fill-opacity: 0.5; stroke-width: 0; opacity: 1;"/><path class="sankey-link" d="M153.33333333333334,416.6666666666665C210,416.6666666666665 210,188.66666666666592 266.6666666666667,188.66666666666592L266.6666666666667,198.99999999999923C210,198.99999999999923 210,426.9999999999999 153.33333333333334,426.9999999999999Z" style="stroke: rgb(68, 68, 68); stroke-opacity: 1; fill: rgb(242, 116, 32); fill-opacity: 0.5; stroke-width: 0; opacity: 1;"/><path class="sankey-link" d="M153.33333333333334,426.99999999999983C210,426.99999999999983 210,224.33333333333266 266.6666666666667,224.33333333333266L266.6666666666667,234.66666666666598C210,234.66666666666598 210,437.3333333333332 153.33333333333334,437.3333333333332Z" style="stroke: rgb(68, 68, 68); stroke-opacity: 1; fill: rgb(242, 116, 32); fill-opacity: 0.5; stroke-width: 0; opacity: 1;"/><path class="sankey-link" d="M153.33333333333334,437.33333333333314C210,437.33333333333314 210,259.99999999999926 266.6666666666667,259.99999999999926L266.6666666666667,270.33333333333263C210,270.33333333333263 210,447.6666666666665 153.33333333333334,447.6666666666665Z" style="stroke: rgb(68, 68, 68); stroke-opacity: 1; fill: rgb(242, 116, 32); fill-opacity: 0.5; stroke-width: 0; opacity: 1;"/><path class="sankey-link" d="M153.33333333333334,447.66666666666646C210,447.66666666666646 210,295.66666666666634 266.6666666666667,295.66666666666634L266.6666666666667,305.9999999999997C210,305.9999999999997 210,457.99999999999983 153.33333333333334,457.99999999999983Z" style="stroke: rgb(68, 68, 68); stroke-opacity: 1; fill: rgb(242, 116, 32); fill-opacity: 0.5; stroke-width: 0; opacity: 1;"/><path class="sankey-link" d="M153.33333333333334,457.9999999999998C210,457.9999999999998 210,331.3333333333332 266.6666666666667,331.3333333333332L266.6666666666667,341.6666666666666C210,341.6666666666666 210,468.33333333333314 153.33333333333334,468.33333333333314Z" style="stroke: rgb(68, 68, 68); stroke-opacity: 1; fill: rgb(242, 116, 32); fill-opacity: 0.5; stroke-width: 0; opacity: 1;"/><path class="sankey-link" d="M153.33333333333334,468.3333333333331C210,468.3333333333331 210,366.99999999999994 266.6666666666667,366.99999999999994L266.6666666666667,377.3333333333333C210,377.3333333333333 210,478.66666666666646 153.33333333333334,478.66666666666646Z" style="stroke: rgb(68, 68, 68); stroke-opacity: 1; fill: rgb(242, 116, 32); fill-opacity: 0.5; stroke-width: 0; opacity: 1;"/><path class="sankey-link" d="M153.33333333333334,478.6666666666664C210,478.6666666666664 210,402.6666666666667 266.6666666666667,402.6666666666667L266.6666666666667,413.00000000000006C210,413.00000000000006 210,488.9999999999998 153.33333333333334,488.9999999999998Z" style="stroke: rgb(68, 68, 68); stroke-opacity: 1; fill: rgb(242, 116, 32); fill-opacity: 0.5; stroke-width: 0; opacity: 1;"/><path class="sankey-link" d="M153.33333333333334,488.9999999999997C210,488.9999999999997 210,438.3333333333334 266.6666666666667,438.3333333333334L266.6666666666667,448.6666666666668C210,448.6666666666668 210,499.3333333333331 153.33333333333334,499.3333333333331Z" style="stroke: rgb(68, 68, 68); stroke-opacity: 1; fill: rgb(242, 116, 32); fill-opacity: 0.5; stroke-width: 0; opacity: 1;"/><path class="sankey-link" d="M153.33333333333334,499.33333333333303C210,499.33333333333303 210,474.00000000000006 266.6666666666667,474.00000000000006L266.6666666666667,484.3333333333334C210,484.3333333333334 210,509.6666666666664 153.33333333333334,509.6666666666664Z" style="stroke: rgb(68, 68, 68); stroke-opacity: 1; fill: rgb(242, 116, 32); fill-opacity: 0.5; stroke-width: 0; opacity: 1;"/><path class="sankey-link" d="M286.6666666666667,-8.242295734817162e-13C343.33333333333337,-8.242295734817162e-13 343.33333333333337,152.4374053471456 400,152.4374053471456L400,173.1040720138123C343.33333333333337,173.1040720138123 343.33333333333337,20.666666666665837 286.6666666666667,20.666666666665837Z" style="stroke: rgb(68, 68, 68); stroke-opacity: 1; fill: rgb(159, 109, 154); fill-opacity: 0.5; stroke-width: 0; opacity: 1;"/><path class="sankey-link" d="M286.6666666666667,35.666666666665805C343.33333333333337,35.666666666665805 343.33333333333337,173.10407201381227 400,173.10407201381227L400,193.77073868047896C343.33333333333337,193.77073868047896 343.33333333333337,56.33333333333246 286.6666666666667,56.33333333333246Z" style="stroke: rgb(68, 68, 68); stroke-opacity: 1; fill: rgb(65, 136, 149); fill-opacity: 0.5; stroke-width: 0; opacity: 1;"/><path class="sankey-link" d="M286.6666666666667,71.33333333333246C343.33333333333337,71.33333333333246 343.33333333333337,193.77073868047893 400,193.77073868047893L400,214.4374053471456C343.33333333333337,214.4374053471456 343.33333333333337,91.99999999999912 286.6666666666667,91.99999999999912Z" style="stroke: rgb(68, 68, 68); stroke-opacity: 1; fill: rgb(255, 238, 121); fill-opacity: 0.5; stroke-width: 0; opacity: 1;"/><path class="sankey-link" d="M286.6666666666667,106.9999999999992C343.33333333333337,106.9999999999992 343.33333333333337,214.43740534714559 400,214.43740534714559L400,235.10407201381227C343.33333333333337,235.10407201381227 343.33333333333337,127.66666666666586 286.6666666666667,127.66666666666586Z" style="stroke: rgb(68, 68, 68); stroke-opacity: 1; fill: rgb(25, 197, 9); fill-opacity: 0.5; stroke-width: 0; opacity: 1;"/><path class="sankey-link" d="M286.6666666666667,142.66666666666595C343.33333333333337,142.66666666666595 343.33333333333337,235.10407201381224 400,235.10407201381224L400,255.77073868047893C343.33333333333337,255.77073868047893 343.33333333333337,163.33333333333263 286.6666666666667,163.33333333333263Z" style="stroke: rgb(68, 68, 68); stroke-opacity: 1; fill: rgb(238, 119, 62); fill-opacity: 0.5; stroke-width: 0; opacity: 1;"/><path class="sankey-link" d="M286.6666666666667,178.33333333333258C343.33333333333337,178.33333333333258 343.33333333333337,255.7707386804789 400,255.7707386804789L400,276.43740534714556C343.33333333333337,276.43740534714556 343.33333333333337,198.99999999999926 286.6666666666667,198.99999999999926Z" style="stroke: rgb(68, 68, 68); stroke-opacity: 1; fill: rgb(225, 46, 149); fill-opacity: 0.5; stroke-width: 0; opacity: 1;"/><path class="sankey-link" d="M286.6666666666667,213.99999999999932C343.33333333333337,213.99999999999932 343.33333333333337,276.43740534714556 400,276.43740534714556L400,297.1040720138122C343.33333333333337,297.1040720138122 343.33333333333337,234.666666666666 286.6666666666667,234.666666666666Z" style="stroke: rgb(68, 68, 68); stroke-opacity: 1; fill: rgb(242, 161, 197); fill-opacity: 0.5; stroke-width: 0; opacity: 1;"/><path class="sankey-link" d="M286.6666666666667,249.66666666666592C343.33333333333337,249.66666666666592 343.33333333333337,297.10407201381224 400,297.10407201381224L400,317.77073868047887C343.33333333333337,317.77073868047887 343.33333333333337,270.3333333333326 286.6666666666667,270.3333333333326Z" style="stroke: rgb(68, 68, 68); stroke-opacity: 1; fill: rgb(164, 115, 220); fill-opacity: 0.5; stroke-width: 0; opacity: 1;"/><path class="sankey-link" d="M286.6666666666667,285.33333333333303C343.33333333333337,285.33333333333303 343.33333333333337,317.7707386804789 400,317.7707386804789L400,338.43740534714556C343.33333333333337,338.43740534714556 343.33333333333337,305.99999999999966 286.6666666666667,305.99999999999966Z" style="stroke: rgb(68, 68, 68); stroke-opacity: 1; fill: rgb(250, 21, 214); fill-opacity: 0.5; stroke-width: 0; opacity: 1;"/><path class="sankey-link" d="M286.6666666666667,320.9999999999999C343.33333333333337,320.9999999999999 343.33333333333337,338.4374053471456 400,338.4374053471456L400,359.10407201381224C343.33333333333337,359.10407201381224 343.33333333333337,341.6666666666665 286.6666666666667,341.6666666666665Z" style="stroke: rgb(68, 68, 68); stroke-opacity: 1; fill: rgb(82, 141, 179); fill-opacity: 0.5; stroke-width: 0; opacity: 1;"/><path class="sankey-link" d="M286.6666666666667,356.66666666666663C343.33333333333337,356.66666666666663 343.33333333333337,359.1040720138123 400,359.1040720138123L400,379.7707386804789C343.33333333333337,379.7707386804789 343.33333333333337,377.33333333333326 286.6666666666667,377.33333333333326Z" style="stroke: rgb(68, 68, 68); stroke-opacity: 1; fill: rgb(114, 76, 145); fill-opacity: 0.5; stroke-width: 0; opacity: 1;"/><path class="sankey-link" d="M286.6666666666667,392.33333333333337C343.33333333333337,392.33333333333337 343.33333333333337,379.770738680479 400,379.770738680479L400,400.4374053471456C343.33333333333337,400.4374053471456 343.33333333333337,413 286.6666666666667,413Z" style="stroke: rgb(68, 68, 68); stroke-opacity: 1; fill: rgb(233, 147, 46); fill-opacity: 0.5; stroke-width: 0; opacity: 1;"/><path class="sankey-link" d="M286.6666666666667,428.0000000000001C343.33333333333337,428.0000000000001 343.33333333333337,400.43740534714567 400,400.43740534714567L400,421.1040720138123C343.33333333333337,421.1040720138123 343.33333333333337,448.66666666666674 286.6666666666667,448.66666666666674Z" style="stroke: rgb(68, 68, 68); stroke-opacity: 1; fill: rgb(74, 183, 126); fill-opacity: 0.5; stroke-width: 0; opacity: 1;"/><path class="sankey-link" d="M286.6666666666667,463.66666666666674C343.33333333333337,463.66666666666674 343.33333333333337,421.10407201381236 400,421.10407201381236L400,441.770738680479C343.33333333333337,441.770738680479 343.33333333333337,484.33333333333337 286.6666666666667,484.33333333333337Z" style="stroke: rgb(68, 68, 68); stroke-opacity: 1; fill: rgb(58, 81, 103); fill-opacity: 0.5; stroke-width: 0; opacity: 1;"/><path class="sankey-link" d="M153.33333333333334,339.66666666666646C210,339.66666666666646 210,499.33333333333337 266.6666666666667,499.33333333333337L266.6666666666667,509.66666666666674C210,509.66666666666674 210,349.99999999999983 153.33333333333334,349.99999999999983Z" style="stroke: rgb(68, 68, 68); stroke-opacity: 1; fill: rgb(127, 194, 64); fill-opacity: 0.5; stroke-width: 0; opacity: 1;"/><path class="sankey-link" d="M153.33333333333334,509.66666666666634C210,509.66666666666634 210,509.6666666666667 266.6666666666667,509.6666666666667L266.6666666666667,520C210,520 210,519.9999999999997 153.33333333333334,519.9999999999997Z" style="stroke: rgb(68, 68, 68); stroke-opacity: 1; fill: rgb(242, 116, 32); fill-opacity: 0.5; stroke-width: 0; opacity: 1;"/><path class="sankey-link" d="M286.6666666666667,499.33333333333337C343.33333333333337,499.33333333333337 343.33333333333337,456.77073868047916 400,456.77073868047916L400,477.4374053471458C343.33333333333337,477.4374053471458 343.33333333333337,520 286.6666666666667,520Z" style="stroke: rgb(68, 68, 68); stroke-opacity: 1; fill: rgb(0, 255, 255); fill-opacity: 0.5; stroke-width: 0; opacity: 1;"/></g><g class="sankey-node-set" style="cursor: move;"><g class="sankey-node" transform="translate(0.000,161.314)" style="opacity: 1;"><rect class="node-rect" width="20" height="310.00000000000006" style="stroke-width: 0.5; stroke: rgb(0, 0, 0); stroke-opacity: 1; fill: rgb(73, 148, 206); fill-opacity: 1;"/><text class="node-label" data-notex="1" x="0" y="0" text-anchor="start" transform="translate(14.2,3.25)scale(-1,1)rotate(90)" style="cursor: default; font-family: 'Open Sans', verdana, arial, sans-serif; font-size: 12px; fill: rgb(42, 63, 95); fill-opacity: 1; white-space: pre; text-shadow: white 1px 1px 1px, white -1px -1px 1px, white 1px -1px 1px, white -1px 1px 1px;">CV</text></g><g class="sankey-node" transform="translate(133.333,195.000)" style="opacity: 1;"><rect class="node-rect" width="20" height="155.00000000000003" style="stroke-width: 0.5; stroke: rgb(0, 0, 0); stroke-opacity: 1; fill: rgb(127, 194, 65); fill-opacity: 1;"/><text class="node-label" data-notex="1" x="0" y="0" text-anchor="start" transform="translate(14.2,3.25)scale(-1,1)rotate(90)" style="cursor: default; font-family: 'Open Sans', verdana, arial, sans-serif; font-size: 12px; fill: rgb(42, 63, 95); fill-opacity: 1; white-space: pre; text-shadow: white 1px 1px 1px, white -1px -1px 1px, white 1px -1px 1px, white -1px 1px 1px;">Defaced</text></g><g class="sankey-node" transform="translate(133.333,365.000)" style="opacity: 1;"><rect class="node-rect" width="20" height="155.00000000000006" style="stroke-width: 0.5; stroke: rgb(0, 0, 0); stroke-opacity: 1; fill: rgb(242, 116, 32); fill-opacity: 1;"/><text class="node-label" data-notex="1" x="0" y="0" text-anchor="start" transform="translate(14.2,3.25)scale(-1,1)rotate(90)" style="cursor: default; font-family: 'Open Sans', verdana, arial, sans-serif; font-size: 12px; fill: rgb(42, 63, 95); fill-opacity: 1; white-space: pre; text-shadow: white 1px 1px 1px, white -1px -1px 1px, white 1px -1px 1px, white -1px 1px 1px;">Non-defaced</text></g><g class="sankey-node" transform="translate(266.667,-0.000)" style="opacity: 1;"><rect class="node-rect" width="20" height="20.66666666666663" style="stroke-width: 0.5; stroke: rgb(0, 0, 0); stroke-opacity: 1; fill: rgb(159, 109, 154); fill-opacity: 1;"/><text class="node-label" data-notex="1" x="0" y="0" text-anchor="start" transform="translate(14.2,3.25)scale(-1,1)rotate(90)" style="cursor: default; font-family: 'Open Sans', verdana, arial, sans-serif; font-size: 12px; fill: rgb(42, 63, 95); fill-opacity: 1; white-space: pre; text-shadow: white 1px 1px 1px, white -1px -1px 1px, white 1px -1px 1px, white -1px 1px 1px;">F1</text></g><g class="sankey-node" transform="translate(266.667,35.667)" style="opacity: 1;"><rect class="node-rect" width="20" height="20.666666666666657" style="stroke-width: 0.5; stroke: rgb(0, 0, 0); stroke-opacity: 1; fill: rgb(65, 136, 149); fill-opacity: 1;"/><text class="node-label" data-notex="1" x="0" y="0" text-anchor="start" transform="translate(14.2,3.25)scale(-1,1)rotate(90)" style="cursor: default; font-family: 'Open Sans', verdana, arial, sans-serif; font-size: 12px; fill: rgb(42, 63, 95); fill-opacity: 1; white-space: pre; text-shadow: white 1px 1px 1px, white -1px -1px 1px, white 1px -1px 1px, white -1px 1px 1px;">F2</text></g><g class="sankey-node" transform="translate(266.667,71.333)" style="opacity: 1;"><rect class="node-rect" width="20" height="20.666666666666742" style="stroke-width: 0.5; stroke: rgb(0, 0, 0); stroke-opacity: 1; fill: rgb(255, 238, 121); fill-opacity: 1;"/><text class="node-label" data-notex="1" x="0" y="0" text-anchor="start" transform="translate(14.2,3.25)scale(-1,1)rotate(90)" style="cursor: default; font-family: 'Open Sans', verdana, arial, sans-serif; font-size: 12px; fill: rgb(42, 63, 95); fill-opacity: 1; white-space: pre; text-shadow: white 1px 1px 1px, white -1px -1px 1px, white 1px -1px 1px, white -1px 1px 1px;">F3</text></g><g class="sankey-node" transform="translate(266.667,107.000)" style="opacity: 1;"><rect class="node-rect" width="20" height="20.666666666666742" style="stroke-width: 0.5; stroke: rgb(0, 0, 0); stroke-opacity: 1; fill: rgb(25, 197, 9); fill-opacity: 1;"/><text class="node-label" data-notex="1" x="0" y="0" text-anchor="start" transform="translate(14.2,3.25)scale(-1,1)rotate(90)" style="cursor: default; font-family: 'Open Sans', verdana, arial, sans-serif; font-size: 12px; fill: rgb(42, 63, 95); fill-opacity: 1; white-space: pre; text-shadow: white 1px 1px 1px, white -1px -1px 1px, white 1px -1px 1px, white -1px 1px 1px;">F4</text></g><g class="sankey-node" transform="translate(266.667,142.667)" style="opacity: 1;"><rect class="node-rect" width="20" height="20.66666666666663" style="stroke-width: 0.5; stroke: rgb(0, 0, 0); stroke-opacity: 1; fill: rgb(238, 119, 62); fill-opacity: 1;"/><text class="node-label" data-notex="1" x="0" y="0" text-anchor="start" transform="translate(14.2,3.25)scale(-1,1)rotate(90)" style="cursor: default; font-family: 'Open Sans', verdana, arial, sans-serif; font-size: 12px; fill: rgb(42, 63, 95); fill-opacity: 1; white-space: pre; text-shadow: white 1px 1px 1px, white -1px -1px 1px, white 1px -1px 1px, white -1px 1px 1px;">F5</text></g><g class="sankey-node" transform="translate(266.667,178.333)" style="opacity: 1;"><rect class="node-rect" width="20" height="20.666666666666742" style="stroke-width: 0.5; stroke: rgb(0, 0, 0); stroke-opacity: 1; fill: rgb(225, 46, 149); fill-opacity: 1;"/><text class="node-label" data-notex="1" x="0" y="0" text-anchor="start" transform="translate(14.2,3.25)scale(-1,1)rotate(90)" style="cursor: default; font-family: 'Open Sans', verdana, arial, sans-serif; font-size: 12px; fill: rgb(42, 63, 95); fill-opacity: 1; white-space: pre; text-shadow: white 1px 1px 1px, white -1px -1px 1px, white 1px -1px 1px, white -1px 1px 1px;">F6</text></g><g class="sankey-node" transform="translate(266.667,214.000)" style="opacity: 1;"><rect class="node-rect" width="20" height="20.66666666666663" style="stroke-width: 0.5; stroke: rgb(0, 0, 0); stroke-opacity: 1; fill: rgb(242, 161, 197); fill-opacity: 1;"/><text class="node-label" data-notex="1" x="0" y="0" text-anchor="start" transform="translate(14.2,3.25)scale(-1,1)rotate(90)" style="cursor: default; font-family: 'Open Sans', verdana, arial, sans-serif; font-size: 12px; fill: rgb(42, 63, 95); fill-opacity: 1; white-space: pre; text-shadow: white 1px 1px 1px, white -1px -1px 1px, white 1px -1px 1px, white -1px 1px 1px;">F7</text></g><g class="sankey-node" transform="translate(266.667,249.667)" style="opacity: 1;"><rect class="node-rect" width="20" height="20.666666666667084" style="stroke-width: 0.5; stroke: rgb(0, 0, 0); stroke-opacity: 1; fill: rgb(164, 115, 220); fill-opacity: 1;"/><text class="node-label" data-notex="1" x="0" y="0" text-anchor="start" transform="translate(14.2,3.25)scale(-1,1)rotate(90)" style="cursor: default; font-family: 'Open Sans', verdana, arial, sans-serif; font-size: 12px; fill: rgb(42, 63, 95); fill-opacity: 1; white-space: pre; text-shadow: white 1px 1px 1px, white -1px -1px 1px, white 1px -1px 1px, white -1px 1px 1px;">F8</text></g><g class="sankey-node" transform="translate(266.667,285.333)" style="opacity: 1;"><rect class="node-rect" width="20" height="20.666666666666913" style="stroke-width: 0.5; stroke: rgb(0, 0, 0); stroke-opacity: 1; fill: rgb(250, 21, 214); fill-opacity: 1;"/><text class="node-label" data-notex="1" x="0" y="0" text-anchor="start" transform="translate(14.2,3.25)scale(-1,1)rotate(90)" style="cursor: default; font-family: 'Open Sans', verdana, arial, sans-serif; font-size: 12px; fill: rgb(42, 63, 95); fill-opacity: 1; white-space: pre; text-shadow: white 1px 1px 1px, white -1px -1px 1px, white 1px -1px 1px, white -1px 1px 1px;">F9</text></g><g class="sankey-node" transform="translate(266.667,321.000)" style="opacity: 1;"><rect class="node-rect" width="20" height="20.666666666666742" style="stroke-width: 0.5; stroke: rgb(0, 0, 0); stroke-opacity: 1; fill: rgb(82, 141, 179); fill-opacity: 1;"/><text class="node-label" data-notex="1" x="0" y="0" text-anchor="start" transform="translate(14.2,3.25)scale(-1,1)rotate(90)" style="cursor: default; font-family: 'Open Sans', verdana, arial, sans-serif; font-size: 12px; fill: rgb(42, 63, 95); fill-opacity: 1; white-space: pre; text-shadow: white 1px 1px 1px, white -1px -1px 1px, white 1px -1px 1px, white -1px 1px 1px;">F10</text></g><g class="sankey-node" transform="translate(266.667,356.667)" style="opacity: 1;"><rect class="node-rect" width="20" height="20.666666666666742" style="stroke-width: 0.5; stroke: rgb(0, 0, 0); stroke-opacity: 1; fill: rgb(114, 76, 145); fill-opacity: 1;"/><text class="node-label" data-notex="1" x="0" y="0" text-anchor="start" transform="translate(14.2,3.25)scale(-1,1)rotate(90)" style="cursor: default; font-family: 'Open Sans', verdana, arial, sans-serif; font-size: 12px; fill: rgb(42, 63, 95); fill-opacity: 1; white-space: pre; text-shadow: white 1px 1px 1px, white -1px -1px 1px, white 1px -1px 1px, white -1px 1px 1px;">F11</text></g><g class="sankey-node" transform="translate(266.667,392.333)" style="opacity: 1;"><rect class="node-rect" width="20" height="20.666666666666742" style="stroke-width: 0.5; stroke: rgb(0, 0, 0); stroke-opacity: 1; fill: rgb(233, 147, 46); fill-opacity: 1;"/><text class="node-label" data-notex="1" x="0" y="0" text-anchor="start" transform="translate(14.2,3.25)scale(-1,1)rotate(90)" style="cursor: default; font-family: 'Open Sans', verdana, arial, sans-serif; font-size: 12px; fill: rgb(42, 63, 95); fill-opacity: 1; white-space: pre; text-shadow: white 1px 1px 1px, white -1px -1px 1px, white 1px -1px 1px, white -1px 1px 1px;">F12</text></g><g class="sankey-node" transform="translate(266.667,428.000)" style="opacity: 1;"><rect class="node-rect" width="20" height="20.66666666666663" style="stroke-width: 0.5; stroke: rgb(0, 0, 0); stroke-opacity: 1; fill: rgb(74, 183, 126); fill-opacity: 1;"/><text class="node-label" data-notex="1" x="0" y="0" text-anchor="start" transform="translate(14.2,3.25)scale(-1,1)rotate(90)" style="cursor: default; font-family: 'Open Sans', verdana, arial, sans-serif; font-size: 12px; fill: rgb(42, 63, 95); fill-opacity: 1; white-space: pre; text-shadow: white 1px 1px 1px, white -1px -1px 1px, white 1px -1px 1px, white -1px 1px 1px;">F13</text></g><g class="sankey-node" transform="translate(266.667,463.667)" style="opacity: 1;"><rect class="node-rect" width="20" height="20.66666666666663" style="stroke-width: 0.5; stroke: rgb(0, 0, 0); stroke-opacity: 1; fill: rgb(58, 81, 103); fill-opacity: 1;"/><text class="node-label" data-notex="1" x="0" y="0" text-anchor="start" transform="translate(14.2,3.25)scale(-1,1)rotate(90)" style="cursor: default; font-family: 'Open Sans', verdana, arial, sans-serif; font-size: 12px; fill: rgb(42, 63, 95); fill-opacity: 1; white-space: pre; text-shadow: white 1px 1px 1px, white -1px -1px 1px, white 1px -1px 1px, white -1px 1px 1px;">F14</text></g><g class="sankey-node" transform="translate(400.000,152.437)" style="opacity: 1;"><rect class="node-rect" width="20" height="289.33333333333354" style="stroke-width: 0.5; stroke: rgb(0, 0, 0); stroke-opacity: 1; fill: rgb(0, 128, 128); fill-opacity: 1;"/><text class="node-label" data-notex="1" x="0" y="0" text-anchor="start" transform="translate(14.2,3.25)scale(-1,1)rotate(90)" style="cursor: default; font-family: 'Open Sans', verdana, arial, sans-serif; font-size: 12px; fill: rgb(42, 63, 95); fill-opacity: 1; white-space: pre; text-shadow: white 1px 1px 1px, white -1px -1px 1px, white 1px -1px 1px, white -1px 1px 1px;">Training</text></g><g class="sankey-node" transform="translate(266.667,499.333)" style="opacity: 1;"><rect class="node-rect" width="20" height="20.66666666666663" style="stroke-width: 0.5; stroke: rgb(0, 0, 0); stroke-opacity: 1; fill: rgb(0, 255, 255); fill-opacity: 1;"/><text class="node-label" data-notex="1" x="0" y="0" text-anchor="start" transform="translate(14.2,3.25)scale(-1,1)rotate(90)" style="cursor: default; font-family: 'Open Sans', verdana, arial, sans-serif; font-size: 12px; fill: rgb(42, 63, 95); fill-opacity: 1; white-space: pre; text-shadow: white 1px 1px 1px, white -1px -1px 1px, white 1px -1px 1px, white -1px 1px 1px;">F15</text></g><g class="sankey-node" transform="translate(400.000,456.771)" style="opacity: 1;"><rect class="node-rect" width="20" height="20.66666666666663" style="stroke-width: 0.5; stroke: rgb(0, 0, 0); stroke-opacity: 1; fill: rgb(0, 0, 128); fill-opacity: 1;"/><text class="node-label" data-notex="1" x="0" y="0" text-anchor="start" transform="translate(14.2,3.25)scale(-1,1)rotate(90)" style="cursor: default; font-family: 'Open Sans', verdana, arial, sans-serif; font-size: 12px; fill: rgb(42, 63, 95); fill-opacity: 1; white-space: pre; text-shadow: white 1px 1px 1px, white -1px -1px 1px, white 1px -1px 1px, white -1px 1px 1px;">Validation</text></g></g></g><defs id="topdefs-1efab6"><g class="clips"/></defs><g class="layer-above"><g class="imagelayer"/><g class="shapelayer"/></g><g class="infolayer"><g class="g-gtitle"><text class="gtitle" x="40" y="50" text-anchor="start" dy="0em" style="font-family: 'Open Sans', verdana, arial, sans-serif; font-size: 17px; fill: rgb(42, 63, 95); opacity: 1; font-weight: normal; white-space: pre;">Nondefaced-detector cross-validation flow diagram</text></g><g class="first-render"/><g class="annotation" data-index="0" style="opacity: 0.5;"><g class="annotation-text-g" transform="rotate(0,157.60000000000002,218.6)"><g class="cursor-pointer" transform="translate(154,208)"><rect class="bg" x="0.5" y="0.5" width="6" height="20" style="stroke-width: 1px; stroke: rgb(0, 0, 0); stroke-opacity: 0; fill: rgb(0, 0, 0); fill-opacity: 0;"/><text class="annotation-text" text-anchor="middle" x="3.5625" y="15" style="font-family: 'Open Sans', verdana, arial, sans-serif; font-size: 12px; fill: rgb(42, 63, 95); fill-opacity: 1; white-space: pre;"> </text></g></g><g class="annotation-arrow-g" style="opacity: 1;"><path d="M160.60000000000002,219.1L277.6,238.6" style="stroke-width: 1px; stroke: rgb(42, 63, 95); stroke-opacity: 1; stroke-dasharray: 0px, 0px, 118.614px, 118.614px;"/></g></g><g class="annotation" data-index="1" style="opacity: 0.5;"><g class="annotation-text-g" transform="rotate(0,700,227)"><g class="cursor-pointer" transform="translate(697,217)"><rect class="bg" x="0.5" y="0.5" width="6" height="20" style="stroke-width: 1px; stroke: rgb(0, 0, 0); stroke-opacity: 0; fill: rgb(0, 0, 0); fill-opacity: 0;"/><text class="annotation-text" text-anchor="middle" x="3.5625" y="15" style="font-family: 'Open Sans', verdana, arial, sans-serif; font-size: 12px; fill: rgb(42, 63, 95); fill-opacity: 1; white-space: pre;"> </text></g></g><g class="annotation-arrow-g" style="opacity: 1;"><path d="M697,227.6L600,247" style="stroke-width: 1px; stroke: rgb(42, 63, 95); stroke-opacity: 1; stroke-dasharray: 0px, 0px, 98.921px, 98.921px;"/></g></g></g></svg>
